<?xml version="1.0" standalone="no"?>
<!DOCTYPE svg PUBLIC "-//W3C//DTD SVG 20010904//EN"
 "http://www.w3.org/TR/2001/REC-SVG-20010904/DTD/svg10.dtd">
<svg version="1.0" xmlns="http://www.w3.org/2000/svg"
 width="920.000000pt" height="512.000000pt" viewBox="0 0 920.000000 512.000000"
 preserveAspectRatio="xMidYMid meet">

<g transform="translate(0.000000,512.000000) scale(0.100000,-0.100000)"
fill="#000000" stroke="none">
<path d="M5760 4746 c-129 -30 -484 -111 -789 -180 -318 -72 -573 -135 -599
-148 -131 -63 -206 -212 -181 -357 9 -51 47 -126 224 -444 l212 -382 -26 -16
c-14 -9 -476 -270 -1026 -579 -550 -309 -1012 -570 -1028 -579 l-28 -17 75
-38 c70 -36 133 -83 293 -220 101 -87 156 -109 278 -114 128 -5 186 15 291
101 41 34 112 92 157 129 91 75 208 138 307 164 90 25 319 25 410 1 136 -36
245 -103 431 -265 46 -40 109 -85 139 -100 51 -25 65 -27 175 -27 117 0 122 1
180 33 34 18 107 73 165 124 217 190 375 258 601 258 43 0 79 2 79 4 0 5 24
-35 -592 1000 -258 433 -467 790 -465 792 2 3 251 61 552 129 309 70 567 134
593 146 59 29 114 85 149 151 25 47 28 64 28 148 0 79 -4 103 -23 141 -56 113
-160 185 -282 194 -54 4 -104 -4 -300 -49z"/>
<path d="M6305 3784 c-171 -27 -328 -126 -423 -268 -78 -116 -97 -184 -97
-341 0 -123 2 -134 33 -210 61 -151 165 -264 307 -332 177 -84 352 -82 535 8
200 99 330 306 330 530 0 115 -13 177 -60 274 -95 197 -292 328 -511 339 -46
2 -97 2 -114 0z"/>
<path d="M2155 1864 c-101 -56 -141 -162 -96 -259 33 -72 102 -115 184 -115
67 0 157 -27 212 -64 28 -19 86 -67 130 -106 146 -132 289 -212 429 -240 95
-19 278 -15 370 10 146 37 235 92 432 264 101 88 179 126 276 133 140 10 227
-27 378 -162 216 -192 364 -255 604 -256 236 -1 377 60 605 260 62 54 132 105
170 124 61 30 72 32 171 32 98 0 109 -2 170 -32 36 -18 101 -65 145 -104 167
-148 250 -201 374 -244 85 -28 242 -47 295 -35 136 30 199 184 123 299 -37 56
-92 81 -193 91 -113 10 -181 45 -314 161 -237 207 -392 269 -640 256 -232 -12
-355 -70 -585 -276 -44 -39 -109 -86 -145 -104 -62 -30 -70 -32 -180 -32 -105
0 -120 2 -170 27 -30 15 -98 65 -152 111 -140 122 -167 142 -249 186 -129 69
-202 86 -369 86 -265 0 -357 -42 -657 -299 -37 -32 -93 -70 -123 -85 -50 -23
-66 -26 -170 -26 -105 0 -120 2 -171 27 -31 16 -91 58 -134 95 -194 168 -299
234 -430 269 -93 24 -253 29 -290 8z"/>
<path d="M2177 1130 c-118 -35 -175 -193 -107 -293 40 -59 78 -77 189 -91 126
-17 179 -42 290 -138 138 -121 202 -167 286 -208 118 -58 196 -74 350 -73 221
1 359 54 542 210 218 186 259 207 403 206 111 0 178 -26 273 -104 40 -33 110
-91 156 -129 95 -79 214 -142 316 -166 108 -27 307 -24 409 4 115 33 221 92
328 183 129 110 207 169 247 186 102 43 251 36 350 -18 31 -16 106 -73 166
-125 134 -116 225 -174 328 -209 91 -30 231 -50 293 -40 118 17 197 157 151
268 -17 38 -88 105 -119 111 -13 2 -60 9 -105 14 -111 13 -169 43 -295 153
-236 208 -362 262 -608 263 -244 1 -370 -53 -605 -259 -61 -53 -133 -107 -161
-121 -105 -51 -261 -51 -364 1 -26 13 -103 72 -171 130 -68 59 -154 125 -191
147 -220 130 -523 141 -751 26 -85 -42 -136 -79 -240 -170 -164 -145 -217
-170 -352 -170 -142 -1 -197 25 -350 161 -168 150 -316 228 -479 250 -89 13
-139 13 -179 1z"/>
</g>
</svg>
