<?xml version="1.0" standalone="no"?>
<!DOCTYPE svg PUBLIC "-//W3C//DTD SVG 20010904//EN"
 "http://www.w3.org/TR/2001/REC-SVG-20010904/DTD/svg10.dtd">
<svg version="1.0" xmlns="http://www.w3.org/2000/svg"
 width="800.000000pt" height="583.000000pt" viewBox="0 0 800.000000 583.000000"
 preserveAspectRatio="xMidYMid meet">

<g transform="translate(0.000000,583.000000) scale(0.100000,-0.100000)"
fill="#000000" stroke="none">
<path d="M5479 5806 c-133 -37 -271 -151 -333 -273 -113 -227 -78 -454 98
-629 80 -80 158 -122 273 -148 94 -21 133 -20 221 4 194 54 321 170 388 354
68 189 19 391 -131 541 -79 79 -161 127 -256 150 -76 18 -196 18 -260 1z"/>
<path d="M4540 5069 c-138 -21 -197 -53 -500 -269 -773 -552 -1070 -778 -1152
-877 -143 -171 -154 -333 -41 -563 41 -83 60 -108 154 -200 127 -126 206 -183
547 -394 290 -179 350 -219 358 -240 3 -8 -140 -231 -340 -530 -222 -332 -349
-530 -357 -558 -24 -91 30 -207 121 -257 37 -21 58 -25 125 -25 51 1 93 6 116
17 47 21 121 102 249 274 118 158 125 168 348 483 456 642 434 606 434 700 0
99 -19 132 -119 205 -86 63 -117 85 -443 305 -113 76 -231 157 -264 181 l-59
43 38 30 c49 40 426 306 820 580 147 102 150 104 167 85 17 -20 116 -264 198
-489 54 -146 111 -269 145 -314 15 -20 51 -47 80 -61 52 -26 53 -26 201 -17
82 4 151 7 153 5 2 -1 -16 -24 -40 -51 -24 -26 -98 -110 -164 -186 -66 -77
-125 -144 -130 -150 -56 -60 -711 -809 -900 -1029 -198 -231 -221 -266 -211
-319 13 -71 82 -128 153 -128 35 0 46 8 144 108 90 91 216 228 343 372 138
157 182 206 186 210 3 3 35 39 71 80 205 235 728 821 818 918 58 62 109 111
114 109 12 -4 77 -222 77 -258 0 -22 -13 -33 -86 -75 -193 -111 -268 -166
-385 -283 -193 -194 -313 -404 -389 -681 -49 -178 -49 -507 0 -695 207 -796
983 -1262 1780 -1070 402 98 762 390 948 770 86 176 125 316 143 512 40 428
-109 846 -411 1153 -102 103 -181 164 -318 247 -235 141 -488 200 -831 191
l-144 -3 -38 130 c-61 205 -61 207 6 219 82 16 128 115 104 226 -15 72 -56
113 -134 135 -52 16 -89 17 -339 9 -155 -4 -303 -8 -330 -8 l-48 -1 -18 50
c-10 28 -58 158 -105 290 -176 488 -246 642 -376 825 -99 141 -189 230 -254
252 -65 21 -146 28 -215 17z m2110 -2419 c63 -5 156 -21 205 -34 433 -118 775
-496 856 -946 15 -87 15 -296 -1 -395 -55 -358 -297 -687 -629 -859 -181 -94
-324 -126 -554 -126 -206 0 -339 30 -510 116 -132 66 -202 117 -312 228 -173
174 -263 339 -326 596 -29 121 -32 350 -5 473 69 315 255 594 503 753 101 65
184 107 192 98 5 -5 48 -148 96 -319 182 -647 242 -835 278 -873 51 -54 145
-53 202 3 66 66 72 29 -136 770 -154 548 -145 512 -117 518 42 8 142 7 258 -3z"/>
<path d="M5791 4034 c-36 -41 -41 -53 -41 -96 0 -56 15 -91 58 -131 l30 -28
215 3 c201 3 218 4 244 24 41 31 65 78 66 134 2 46 -1 52 -43 95 l-44 45 -222
0 -222 0 -41 -46z"/>
<path d="M2430 3564 c-88 -29 -130 -69 -150 -143 -15 -58 2 -137 39 -178 50
-55 80 -64 237 -71 l143 -7 -156 -185 c-85 -102 -178 -212 -207 -244 l-52 -60
-48 33 c-109 76 -380 182 -511 200 -92 14 -442 14 -525 0 -210 -33 -460 -149
-643 -297 -402 -323 -601 -797 -546 -1300 64 -597 494 -1098 1072 -1252 156
-41 275 -54 447 -47 279 12 503 85 740 243 305 202 518 508 611 878 31 126 49
166 74 166 21 0 58 53 130 190 36 68 65 126 65 127 0 2 -49 3 -108 3 -118 0
-132 6 -132 53 0 46 -47 219 -90 330 -42 109 -119 246 -199 356 -49 68 -81
123 -81 139 0 8 43 60 278 340 48 57 91 110 95 118 11 19 -5 44 -75 122 -115
126 -231 320 -243 407 -10 71 -26 85 -94 84 -31 0 -63 -3 -71 -5z m-675 -942
c134 -34 335 -128 335 -156 0 -15 -140 -191 -380 -477 -374 -446 -386 -462
-396 -516 -8 -40 9 -89 45 -132 l28 -33 621 -8 c342 -4 625 -10 629 -14 22
-22 -106 -352 -183 -467 -63 -96 -248 -281 -342 -343 -238 -157 -542 -224
-822 -182 -260 40 -479 151 -665 340 -185 187 -299 406 -334 643 -16 102 -14
306 4 405 81 468 448 845 926 953 97 22 427 14 534 -13z m646 -417 c51 -66
130 -206 162 -287 34 -85 80 -265 73 -284 -5 -12 -65 -14 -389 -14 -212 0
-398 3 -415 6 l-30 6 131 157 c271 324 405 473 421 468 6 -2 27 -25 47 -52z"/>
</g>
</svg>
