<?xml version="1.0" encoding="utf-8"?>
<!-- Generator: Adobe Illustrator 15.0.0, SVG Export Plug-In . SVG Version: 6.00 Build 0)  -->
<!DOCTYPE svg PUBLIC "-//W3C//DTD SVG 1.1//EN" "http://www.w3.org/Graphics/SVG/1.1/DTD/svg11.dtd">
<svg version="1.1" id="Layer_1" xmlns="http://www.w3.org/2000/svg" xmlns:xlink="http://www.w3.org/1999/xlink" x="0px" y="0px"
	 width="351.667px" height="75.907px" viewBox="0 0 351.667 75.907" enable-background="new 0 0 351.667 75.907"
	 xml:space="preserve">

<g>
	<path fill="#fff" d="M158.504,59.061h7.139v-13.65h-7.139V59.061z M158.504,29.594h7.139V16.835h-7.139V29.594z M129.922,75.907
		V0h42.992c6.256,0,11.23,1.013,15.053,2.926c4.213,2.044,6.254,4.982,6.254,8.8v21.946c0,2.55-2.682,3.959-7.91,4.338
		c3.188,0.386,4.975,0.636,5.617,0.766c1.521,0.634,2.293,1.787,2.293,3.573v21.817c0,3.823-2.293,6.757-7.018,8.931
		c-3.959,1.783-8.928,2.81-14.676,2.81H129.922z"/>
	<polygon fill="#fff" points="200.975,0.12 229.812,0.12 229.812,59.06 244.223,59.06 244.223,75.907 200.975,75.907 	"/>
	<rect x="250.611" y="0.12" fill="#fff" width="28.574" height="75.787"/>
	<polygon fill="#fff" points="309.803,16.962 284.791,16.962 284.791,0.12 351,0.12 322.424,59.061 349.092,59.061 
		349.092,75.907 283.004,75.907 	"/>
	<path fill="#fff" d="M96.209,43.961c0.023-1.387-0.885-2.514-2.623-3.476c-1.834-0.951-3.873-1.453-6.182-1.492
		c2.309,0.039,4.355-0.289,6.123-1.006c1.775-0.804,2.717-1.708,2.734-2.914l-0.025-20.179c-0.027-3.979-7.48-6.049-22.576-6.025
		H62.926l-0.016,6.108l7.588-0.05l0.021,21.004l-7.592,0.063v5.179l7.6-0.053v21.94l-7.6-0.041l-0.008,6.11l10.184-0.014
		c15.459-0.014,23.176-2.107,23.154-6.09L96.209,43.961z M53.4,63.042l-7.129-0.035l-0.004-21.834l7.033,0.018v-5.27l-7.033,0.063
		L46.25,14.974l7.033-0.065l0.018-6.019H20.525l0.092,60.265l32.768-0.092L53.4,63.042z M114.451,76.013L1.902,76.062
		c-1.205-0.024-1.85-0.59-1.822-1.793L0,2.066c0.023-1.2,0.684-1.928,1.885-1.91L114.34,0.112c1.215,0.026,1.85,0.677,1.834,1.885
		l0.07,72.205C116.227,75.395,115.656,76.038,114.451,76.013"/>
</g>
</svg>