<?xml version="1.0" standalone="no"?>
<!DOCTYPE svg PUBLIC "-//W3C//DTD SVG 20010904//EN"
 "http://www.w3.org/TR/2001/REC-SVG-20010904/DTD/svg10.dtd">
<svg version="1.0" xmlns="http://www.w3.org/2000/svg"
 width="1000.000000pt" height="1000.000000pt" viewBox="0 0 1000.000000 1000.000000"
 preserveAspectRatio="xMidYMid meet">

<g transform="translate(0.000000,1000.000000) scale(0.100000,-0.100000)"
fill="#000000" stroke="none">
<path d="M4735 9370 c-1543 -96 -2915 -991 -3626 -2365 -249 -481 -404 -1002
-465 -1567 -23 -211 -23 -656 0 -871 94 -884 434 -1697 981 -2352 172 -205
184 -215 274 -215 33 0 58 7 81 23 61 41 70 63 101 248 132 796 584 1508 1243
1957 l88 61 97 -78 c361 -292 785 -470 1246 -521 116 -13 374 -13 490 0 491
55 944 255 1326 586 13 12 27 6 101 -45 144 -98 277 -209 418 -351 334 -334
562 -700 710 -1140 78 -232 137 -491 118 -524 -15 -27 -286 -273 -407 -370
-579 -463 -1249 -745 -2011 -848 -225 -30 -746 -33 -970 -5 -495 62 -935 197
-1383 424 -134 69 -152 75 -193 70 -92 -10 -154 -79 -154 -172 0 -97 35 -129
265 -241 736 -358 1506 -502 2320 -433 1519 129 2877 1064 3550 2444 198 408
329 831 395 1280 33 228 43 373 43 635 0 262 -10 407 -43 635 -106 721 -383
1390 -820 1981 -97 131 -165 160 -260 112 -75 -38 -112 -117 -91 -196 6 -21
32 -65 57 -98 69 -87 212 -304 281 -424 268 -466 437 -975 510 -1535 25 -195
25 -760 0 -947 -94 -698 -312 -1272 -692 -1824 -47 -67 -89 -126 -94 -129 -5
-3 -17 21 -25 52 -139 501 -361 924 -681 1303 -90 106 -304 317 -410 405 -174
143 -431 314 -506 337 -65 19 -117 -3 -210 -90 -170 -160 -325 -268 -520 -362
-550 -265 -1188 -265 -1738 0 -195 94 -324 184 -518 357 -139 124 -172 128
-323 39 -350 -206 -727 -555 -976 -903 -231 -323 -417 -721 -514 -1101 -9 -35
-14 -41 -25 -32 -22 18 -207 296 -269 404 -265 460 -434 958 -507 1496 -26
197 -37 640 -20 845 99 1199 711 2270 1701 2975 574 409 1288 666 2005 721
213 16 637 6 833 -20 392 -53 787 -164 1111 -314 142 -65 162 -71 222 -72 56
0 71 4 101 27 45 35 73 102 65 159 -10 72 -41 105 -155 160 -355 172 -788 303
-1216 369 -244 38 -654 56 -911 40z"/>
<path d="M4825 7950 c-109 -11 -301 -55 -399 -91 -600 -219 -1021 -738 -1112
-1369 -23 -160 -16 -423 16 -570 144 -673 651 -1186 1311 -1328 378 -82 773
-31 1121 143 474 237 793 657 910 1196 19 89 22 135 22 319 1 249 -15 354 -85
557 -207 601 -732 1038 -1357 1132 -102 16 -331 21 -427 11z m406 -356 c547
-93 983 -516 1101 -1067 28 -135 31 -388 5 -520 -65 -327 -245 -622 -502 -822
-156 -121 -325 -203 -522 -252 -100 -25 -123 -28 -313 -28 -190 0 -213 2 -312
27 -524 133 -902 522 -1020 1049 -30 136 -32 396 -4 529 55 265 175 497 354
682 204 212 463 351 747 402 112 20 349 20 466 0z"/>
</g>
</svg>
