<?xml version="1.0" standalone="no"?>
<!DOCTYPE svg PUBLIC "-//W3C//DTD SVG 20010904//EN"
 "http://www.w3.org/TR/2001/REC-SVG-20010904/DTD/svg10.dtd">
<svg version="1.0" xmlns="http://www.w3.org/2000/svg"
 width="900.000000pt" height="600.000000pt" viewBox="0 0 900.000000 600.000000"
 preserveAspectRatio="xMidYMid meet">

<g transform="translate(0.000000,600.000000) scale(0.100000,-0.100000)"
fill="#000000" stroke="none">
<path d="M4066 4905 c-53 -19 -85 -44 -121 -94 -27 -39 -30 -50 -30 -120 0
-69 3 -83 30 -126 22 -36 45 -57 84 -77 l53 -28 427 0 427 0 125 -147 c68 -81
125 -150 127 -153 2 -5 -783 -752 -1046 -994 -133 -123 -162 -329 -69 -484 22
-37 151 -165 435 -434 221 -209 401 -382 399 -385 -4 -3 -139 -36 -808 -197
-269 -65 -299 -79 -343 -168 -82 -165 47 -356 227 -336 54 6 1428 334 1485
355 60 21 101 59 128 118 27 58 31 129 10 180 -13 30 -312 473 -549 814 -43
62 -75 117 -70 121 40 38 827 580 833 573 5 -4 52 -114 105 -243 53 -129 109
-251 124 -270 15 -19 47 -45 71 -57 l43 -23 487 0 488 0 53 28 c73 38 112 100
117 186 6 96 -37 173 -122 219 -40 21 -53 22 -425 27 l-384 5 -106 256 c-59
141 -115 268 -125 283 -28 43 -926 1108 -955 1133 -58 50 -88 53 -605 53 -387
-1 -489 -4 -520 -15z"/>
<path d="M6487 4759 c-232 -54 -399 -307 -359 -541 45 -260 288 -440 543 -401
182 29 336 160 389 332 63 203 -18 429 -194 543 -108 69 -257 96 -379 67z"/>
<path d="M2880 4032 c-98 -49 -107 -195 -15 -252 32 -20 48 -20 671 -20 609 0
640 1 668 19 45 30 66 70 66 128 0 41 -5 58 -27 84 -51 60 -34 59 -710 59
-568 0 -621 -1 -653 -18z"/>
<path d="M2323 3481 c-67 -42 -87 -110 -55 -185 17 -37 30 -51 64 -66 41 -19
70 -20 658 -20 583 0 617 1 657 19 45 21 83 78 83 126 0 37 -23 86 -55 115
l-27 25 -646 3 c-628 2 -648 2 -679 -17z"/>
<path d="M1790 2942 c-101 -50 -108 -191 -14 -253 28 -18 59 -19 668 -19 619
0 640 1 671 20 17 11 40 35 50 53 25 47 17 128 -16 164 -50 54 -39 53 -706 53
-568 0 -621 -1 -653 -18z"/>
<path d="M3005 2199 c-879 -756 -841 -722 -866 -771 -30 -59 -36 -137 -14
-194 22 -58 75 -119 129 -147 56 -29 155 -30 211 -2 32 16 1510 1151 1564
1201 13 12 3 25 -66 91 -124 120 -188 232 -214 377 -7 36 -15 66 -18 65 -3 0
-330 -279 -726 -620z"/>
</g>
</svg>
